HIERARCHY
ROOT Hips
{
	OFFSET -0.179506 -22.333345 2.821913
	CHANNELS 6 Xposition Yposition Zposition Zrotation Yrotation Xrotation 
	JOINT LeftUpLeg
	{
		OFFSET 6.951974 -9.140623 -0.681533
		CHANNELS 3 Zrotation Yrotation Xrotation
		JOINT LeftLeg
		{
			OFFSET 3.427654 -37.519855 -0.449580
			CHANNELS 3 Zrotation Yrotation Xrotation
			JOINT LeftFoot
			{
				OFFSET -1.359570 -39.796059 -4.369333
				CHANNELS 3 Zrotation Yrotation Xrotation
				JOINT LeftToe
				{
					OFFSET 2.635814 -5.579078 11.928840
					CHANNELS 3 Zrotation Yrotation Xrotation
					End Site
					{
						OFFSET 0.000000 0.000000 0.000000
					}
				}
			}
		}
	}
	JOINT RightUpLeg
	{
		OFFSET -6.767048 -9.052170 -0.431982
		CHANNELS 3 Zrotation Yrotation Xrotation
		JOINT RightLeg
		{
			OFFSET -3.829005 -38.256897 -0.885003
			CHANNELS 3 Zrotation Yrotation Xrotation
			JOINT RightFoot
			{
				OFFSET 1.577377 -39.841461 -4.231180
				CHANNELS 3 Zrotation Yrotation Xrotation
				JOINT RightToe
				{
					OFFSET -2.537174 -4.814398 12.334795
					CHANNELS 3 Zrotation Yrotation Xrotation
					End Site
					{
						OFFSET 0.000000 0.000000 0.000000
					}
				}
			}
		}
	}
	JOINT Spine
	{
		OFFSET -0.253288 10.896323 -2.669631
		CHANNELS 3 Zrotation Yrotation Xrotation
		JOINT Spine1
		{
			OFFSET 0.548704 13.518043 0.109247
			CHANNELS 3 Zrotation Yrotation Xrotation
			JOINT Spine2
			{
				OFFSET 0.145701 5.292222 2.542457
				CHANNELS 3 Zrotation Yrotation Xrotation
				JOINT Neck
				{
					OFFSET -0.277840 21.387037 -4.285703
					CHANNELS 3 Zrotation Yrotation Xrotation
					JOINT Head
					{
						OFFSET 0.515184 6.496960 5.134897
						CHANNELS 3 Zrotation Yrotation Xrotation
						End Site
						{
							OFFSET 0.000000 0.000000 0.000000
						}
					}
				}
				JOINT LeftShoulder
				{
					OFFSET 7.884473 12.174932 -3.408961
					CHANNELS 3 Zrotation Yrotation Xrotation
					JOINT LeftArm
					{
						OFFSET 9.097692 3.046888 -0.886815
						CHANNELS 3 Zrotation Yrotation Xrotation
						JOINT LeftForeArm
						{
							OFFSET 25.961220 -1.277207 -2.745643
							CHANNELS 3 Zrotation Yrotation Xrotation
							JOINT LeftHand
							{
								OFFSET 24.923361 0.898606 -0.117091
								CHANNELS 3 Zrotation Yrotation Xrotation
								End Site
								{
									OFFSET 0.000000 0.000000 0.000000
								}
							}
						}
					}
				}
				JOINT RightShoulder
				{
					OFFSET -8.175920 11.883285 -3.861528
					CHANNELS 3 Zrotation Yrotation Xrotation
					JOINT RightArm
					{
						OFFSET -9.601238 3.255117 -0.914307
						CHANNELS 3 Zrotation Yrotation Xrotation
						JOINT RightForeArm
						{
							OFFSET -25.374195 -1.332924 -2.140099
							CHANNELS 3 Zrotation Yrotation Xrotation
							JOINT RightHand
							{
								OFFSET -25.529810 0.777228 -0.555919
								CHANNELS 3 Zrotation Yrotation Xrotation
								End Site
								{
									OFFSET 0.000000 0.000000 0.000000
								}
							}
						}
					}
				}
			}
		}
	}
}
MOTION
Frames: 12
Frame Time: 0.033333
-27.863922 -346.241608 91.240952 177.104686 0.209420 88.484367 1.610073 3.653587 7.217170 -4.418190 -3.257682 -7.205588 2.218710 11.593903 -8.385321 nan nan nan -2.231979 -3.388957 3.694531 3.765597 -1.036866 -2.188360 3.009722 -6.044787 -7.987016 nan nan nan 1.691011 0.723003 9.101987 -0.948106 -0.913548 0.149623 0.121319 -1.240147 -1.209644 1.190127 3.151085 -4.179105 1.700255 5.299248 10.679167 -31.480464 2.463398 4.311981 -52.197110 -3.885391 9.684914 9.362744 -33.989674 5.674824 -2.784533 -13.677107 -5.279562 28.199428 3.595133 5.105121 54.024311 4.671391 15.477226 -7.335779 23.166372 3.329902 5.277271 7.409730 -3.695258 
-27.886305 -346.182922 91.227158 177.229401 0.106137 88.448454 1.494582 3.698595 7.232474 -4.562734 -2.861846 -7.158323 2.200558 11.723557 -8.662136 nan nan nan -2.415066 -3.461177 3.876760 3.819617 -1.175838 -2.326144 3.181295 -6.050925 -7.908644 nan nan nan 1.631099 0.662859 9.113935 -1.005818 -0.960546 -0.082453 0.137421 -1.328488 -1.087245 1.333460 3.135839 -4.133395 1.581553 5.282777 10.800618 -31.329664 2.510532 4.286380 -52.341808 -4.016596 9.677432 9.532291 -34.692663 5.765665 -2.578537 -13.606999 -5.448287 28.030204 3.448267 5.048313 54.326407 4.830462 15.529999 -7.686103 24.098336 3.177401 4.950789 7.427254 -4.042575 
-27.867826 -346.186584 91.229866 177.209812 0.183648 88.391505 1.719654 3.926090 7.117397 -4.827593 -2.569662 -6.955819 2.072433 11.771486 -9.143210 nan nan nan -2.361813 -3.745863 3.731937 3.930189 -1.265332 -2.033139 3.166618 -5.801201 -8.015251 nan nan nan 1.668445 0.524388 9.564541 -1.039292 -0.854584 -0.935189 0.164809 -1.377219 -0.904613 1.580339 2.707277 -4.593722 1.300834 5.729368 12.106431 -31.291712 2.767310 4.323000 -52.714370 -3.984459 9.740171 9.646180 -35.510467 4.336873 4.290836 -12.802091 -8.121808 27.919301 3.106652 5.018483 54.454399 5.362375 15.790956 -6.869731 24.410228 2.704418 1.887432 7.151592 -5.219668 
-27.861645 -346.160950 91.225204 177.177355 0.195323 88.372485 1.785199 3.768730 7.116976 -4.785896 -2.945757 -6.850639 2.033998 11.384082 -8.743569 nan nan nan -2.354530 -3.808845 3.591318 3.940861 -1.231553 -1.766527 3.127657 -5.654288 -8.120756 nan nan nan 1.629341 0.533190 9.589148 -1.010407 -0.809168 -1.161457 0.168292 -1.373907 -0.884996 1.623300 2.517503 -4.703206 1.189358 5.764648 12.657776 -31.170684 2.888241 4.186508 -52.807619 -4.167258 9.896713 9.279569 -35.917494 4.212624 6.998424 -12.603666 -8.867182 27.897184 2.927803 4.903663 54.390814 5.585418 15.996417 -6.446587 24.746404 2.791803 0.781710 7.182798 -5.299201 
-28.025597 -346.672485 91.264175 175.776275 -0.014291 89.278360 1.082822 3.846496 5.660537 -4.487758 -2.017672 -6.535891 2.481556 12.286289 -9.290657 nan nan nan -2.407347 -3.867670 1.796459 3.484697 -0.163338 -1.469747 3.193108 -5.430161 -7.738515 nan nan nan 1.549619 1.087902 9.221992 -0.934281 -0.574246 -0.811724 -0.040767 -0.937201 -1.509902 1.521934 2.726068 -4.720175 1.400540 6.095445 12.290740 -30.978067 3.077583 3.091717 -52.999809 -4.300630 10.905143 9.297539 -35.891818 4.061696 5.040127 -13.065431 -7.442874 27.816323 3.008328 4.429516 54.279979 5.935052 16.257471 -6.565803 24.871050 2.250657 1.717947 7.565047 -4.563445 
-27.953283 -345.269958 91.054039 -179.173885 -0.076382 88.400842 1.248765 3.000915 7.064573 -4.620091 -2.908163 -6.998325 2.078806 10.838374 -10.145226 nan nan nan -2.718173 -4.876215 7.080481 3.827153 -1.407211 -6.011916 3.051584 -6.742884 -7.888509 nan nan nan 1.747147 0.411390 6.842276 -0.967843 -2.652162 0.694394 -0.007996 -2.658286 -0.525614 1.666917 3.398840 -3.476819 1.288723 4.477568 11.147136 -30.723144 2.778861 4.484362 -52.407643 -4.959428 9.054843 8.475033 -36.635114 7.434456 -3.015453 -14.489797 -4.703387 27.507252 2.544990 4.499778 54.815264 4.410105 15.582198 -7.911942 26.235480 5.017431 4.802771 7.959252 -2.307314 
-27.822199 -345.204468 91.062706 -178.943018 -0.065937 88.364230 1.409486 2.805109 7.118746 -4.721175 -3.050421 -6.912390 2.089034 10.475475 -9.953597 nan nan nan -2.600680 -5.010197 7.517876 3.751071 -1.410709 -6.537395 3.043661 -6.755486 -7.609628 nan nan nan 1.567902 0.467585 6.637753 -0.910999 -2.787436 0.883382 0.105689 -2.776059 -0.565808 1.691275 3.446304 -3.416208 1.295369 4.297105 11.165445 -30.640531 2.643960 4.692119 -52.387253 -5.053825 8.881484 8.707252 -37.416395 7.333785 -3.279577 -14.363730 -4.722212 27.564429 2.627765 4.607690 54.865877 4.455250 15.492152 -8.193043 26.794195 4.990796 4.995154 7.906118 -2.261635 
-27.704451 -345.167755 91.066460 -178.861430 -0.010480 88.377648 1.505739 2.755903 7.209269 -4.629526 -3.046512 -7.041902 2.131742 10.377861 -10.026606 nan nan nan -2.478761 -5.185056 7.614013 3.763431 -1.433172 -6.610763 3.059719 -6.710366 -7.602289 nan nan nan 1.441016 0.525613 6.449877 -0.828216 -2.847179 1.055587 0.178594 -2.858853 -0.588937 1.740079 3.508660 -3.416294 1.260730 4.190905 11.229663 -30.619507 2.585541 4.783554 -52.277043 -5.005398 8.738031 8.916696 -38.436470 7.041899 -3.293136 -14.327691 -4.874510 27.684401 2.703606 4.648919 54.708115 4.540065 15.487433 -8.230751 27.520415 5.179613 5.239594 7.885491 -1.950684 
-27.661049 -345.094666 91.065468 -178.700828 0.004024 88.319369 1.479856 2.723736 7.420150 -4.521885 -3.077710 -7.208288 2.202006 10.347058 -10.134503 nan nan nan -2.451466 -5.302608 7.949500 3.794736 -1.411372 -6.968530 3.044827 -6.763321 -7.545171 nan nan nan 1.422944 0.516374 6.297331 -0.841268 -2.953600 1.182747 0.146022 -2.916223 -0.614387 1.860840 3.439547 -3.513027 1.238586 4.121473 11.611858 -30.791347 2.466838 4.861996 -51.810765 -5.141121 8.681019 8.928007 -38.959712 7.106839 -3.381297 -14.427814 -4.934771 27.898276 2.742340 4.668800 54.564288 4.627742 15.516594 -8.315990 28.011865 5.260782 5.231203 7.848375 -1.750786 
-27.623772 -344.971649 91.064430 -178.428613 -0.034508 88.152082 1.500868 2.687002 7.737953 -4.570600 -3.139884 -7.310963 2.202856 10.220312 -10.180041 nan nan nan -2.452983 -5.353259 8.655246 3.723619 -1.445163 -7.757886 3.064734 -6.874076 -7.314109 nan nan nan 1.367434 0.425499 6.200335 -0.894972 -3.122233 1.267435 0.129214 -2.958985 -0.557109 1.951420 3.430262 -3.457730 1.238013 4.072316 11.727416 -30.802737 2.370482 5.008140 -51.550399 -5.364722 8.551368 8.852208 -39.369524 7.361893 -3.245121 -14.401305 -4.994920 27.957460 2.793271 4.703660 54.686059 4.776518 15.484927 -8.491886 28.264045 5.163240 4.982042 7.720191 -1.937375 
-27.537996 -344.861786 91.070251 -178.247664 -0.059408 88.002184 1.649688 2.597273 8.070115 -4.401635 -3.464962 -7.270673 2.445049 9.800721 -10.217573 nan nan nan -2.428559 -5.574826 9.140270 3.680892 -1.419477 -8.276189 3.052072 -6.901287 -7.220051 nan nan nan 1.176795 0.452668 6.191191 -0.851566 -3.269930 1.372569 0.203662 -3.053711 -0.638910 2.036912 3.389689 -3.324958 1.276155 4.076127 11.748141 -30.779542 2.282625 5.097944 -51.408452 -5.466301 8.425119 8.682769 -39.793560 7.339787 -2.990103 -14.362917 -5.242122 27.949516 2.849631 4.642995 54.858695 4.859469 15.494900 -8.663814 28.481116 5.080519 5.004689 7.637611 -1.941041 
-27.477184 -344.816864 91.063873 -178.256493 0.028797 87.955785 1.809130 2.640747 8.254012 -4.434367 -3.461245 -7.426278 2.347734 9.678500 -10.133870 nan nan nan -2.307509 -5.741219 9.280751 3.688153 -1.361376 -8.463324 3.029190 -6.825513 -7.204687 nan nan nan 1.123737 0.480167 6.082449 -0.785444 -3.293538 1.440364 0.296008 -3.079857 -0.645488 2.109759 3.481289 -3.229708 1.319661 4.134482 11.734062 -30.730895 2.154886 5.129584 -51.474027 -5.544379 8.357189 8.663273 -40.007284 7.111687 -2.999583 -14.419492 -5.641352 27.868814 2.911663 4.652171 54.967816 4.951416 15.511031 -8.772163 28.846990 5.006742 5.122552 7.696573 -2.121397 
